<svg width="19" height="15" viewBox="0 0 19 15" fill="none" xmlns="http://www.w3.org/2000/svg">
<path d="M18.2733 5.61233L17.8592 5.17386L16.4058 1.25613C16.1581 0.594377 15.5248 0.155915 14.8184 0.151855H4.43739C3.73098 0.151855 3.09765 0.594377 2.85 1.25613L1.41688 5.12515L0.820086 5.67728C0.300427 6.1198 0 6.76938 0 7.45143V13.1595C0.00405983 14.0933 0.763248 14.8484 1.69701 14.8484H2.7688C3.70256 14.8484 4.46175 14.0933 4.46581 13.1595V12.3313H14.5342V13.1595C14.5382 14.0933 15.2974 14.8484 16.2312 14.8484H17.303C18.2368 14.8484 18.9959 14.0933 19 13.1595V7.30121C18.9959 6.66382 18.7361 6.05485 18.2733 5.61233ZM3.61325 1.5322C3.74316 1.18711 4.07201 0.963821 4.43739 0.963821H14.8224C15.1878 0.963821 15.5167 1.19117 15.6466 1.5322L16.9132 4.94245H15.9673C15.744 3.42002 14.3271 2.36852 12.8047 2.59587C11.5908 2.7745 10.6368 3.72856 10.4581 4.94245H2.34658L3.61325 1.5322ZM15.1391 4.94245H11.2782C11.5015 3.87472 12.5489 3.19267 13.6167 3.41596C14.3799 3.57835 14.9767 4.17515 15.1391 4.94245ZM3.65385 13.1595C3.64979 13.6467 3.25598 14.0365 2.7688 14.0365H1.69701C1.20983 14.0365 0.816026 13.6467 0.811966 13.1595V12.0959C1.05556 12.2542 1.37628 12.3313 1.69701 12.3313H3.65385V13.1595ZM18.188 13.1595C18.184 13.6467 17.7902 14.0365 17.303 14.0365H16.2312C15.744 14.0365 15.3502 13.6427 15.3462 13.1595V12.3313H17.303C17.6237 12.3313 17.9444 12.2542 18.188 12.0959V13.1595ZM17.303 11.5194H1.69701C1.21389 11.5234 0.816026 11.1378 0.811966 10.6506V7.45143C0.811966 7.00485 1.0109 6.57856 1.35192 6.29032C1.35598 6.28626 1.3641 6.27814 1.36816 6.27408L1.9203 5.75442H17.2949L17.6846 6.17258C17.6887 6.1807 17.7009 6.18476 17.7049 6.19288C18.0094 6.48113 18.184 6.88305 18.184 7.30121V10.6506H18.188C18.184 11.1337 17.7861 11.5234 17.303 11.5194Z" fill="#696969"/>
</svg>
