<svg width="15" height="15" viewBox="0 0 15 15" fill="none" xmlns="http://www.w3.org/2000/svg">
<path d="M13.7574 2.36523C12.1262 0.812966 9.47106 0.812966 7.83932 2.36488L7.50003 2.68715L7.16109 2.36503C5.52917 0.812908 2.87443 0.813083 1.24251 2.36503C0.44124 3.12716 0 4.13804 0 5.21119C0 6.28468 0.44124 7.2954 1.24263 8.05785L7.13771 13.6545C7.23911 13.751 7.36966 13.7991 7.5 13.7991C7.63034 13.7991 7.76071 13.7508 7.86229 13.6543L13.7574 8.05785C14.5586 7.29557 15 6.28471 15 5.21136C15 4.13804 14.5586 3.12733 13.7574 2.36523ZM13.0321 7.29469L7.5 12.547L1.96808 7.29487C1.37771 6.73348 1.05264 5.99347 1.05264 5.21136C1.05264 4.42926 1.37771 3.68925 1.96808 3.12786C2.58387 2.54189 3.39264 2.2491 4.20158 2.2491C5.0107 2.2491 5.81982 2.54224 6.43562 3.12821L7.13736 3.79471C7.34051 3.98787 7.65929 3.98787 7.86246 3.79471L8.56438 3.12786C9.79614 1.9561 11.8002 1.9561 13.0319 3.12786C13.6221 3.68928 13.9474 4.42926 13.9474 5.21136C13.9474 5.99347 13.6221 6.73331 13.0321 7.29469Z" fill="#696969"/>
</svg>
